<svg width="67" height="67" viewBox="0 0 67 67" fill="none" xmlns="http://www.w3.org/2000/svg">
<rect width="67" height="67" rx="33.5" fill="#F5F2FA"/>
<path d="M20.2497 22.521C20.2497 21.6756 20.5855 20.8649 21.1833 20.2671C21.781 19.6693 22.5918 19.3335 23.4372 19.3335H36.8955C37.7409 19.3335 38.5516 19.6693 39.1494 20.2671C39.7472 20.8649 40.083 21.6756 40.083 22.521V26.0598C39.7058 26.3303 39.3514 26.6311 39.0233 26.9594C38.6925 26.6597 38.336 26.3895 37.958 26.1519V22.521C37.958 22.2392 37.8461 21.969 37.6468 21.7697C37.4475 21.5704 37.1773 21.4585 36.8955 21.4585H23.4372C23.1554 21.4585 22.8851 21.5704 22.6859 21.7697C22.4866 21.969 22.3747 22.2392 22.3747 22.521V24.2918H22.7288C23.0106 24.2918 23.2809 24.4038 23.4801 24.603C23.6794 24.8023 23.7913 25.0725 23.7913 25.3543C23.7913 25.6361 23.6794 25.9064 23.4801 26.1056C23.2809 26.3049 23.0106 26.4168 22.7288 26.4168H22.3747V31.021H22.7288C23.0106 31.021 23.2809 31.1329 23.4801 31.3322C23.6794 31.5315 23.7913 31.8017 23.7913 32.0835C23.7913 32.3653 23.6794 32.6355 23.4801 32.8348C23.2809 33.0341 23.0106 33.146 22.7288 33.146H22.3747V37.7502H22.7288C23.0106 37.7502 23.2809 37.8621 23.4801 38.0614C23.6794 38.2606 23.7913 38.5309 23.7913 38.8127C23.7913 39.0945 23.6794 39.3647 23.4801 39.564C23.2809 39.7632 23.0106 39.8752 22.7288 39.8752H22.3747V41.646C22.3747 42.2325 22.8507 42.7085 23.4372 42.7085H28.3955C28.6448 43.4664 28.9452 44.1776 29.2696 44.8335H23.4372C23.0186 44.8335 22.6041 44.751 22.2174 44.5909C21.8306 44.4307 21.4793 44.1959 21.1833 43.8999C20.8873 43.6039 20.6525 43.2525 20.4923 42.8658C20.3321 42.4791 20.2497 42.0646 20.2497 41.646V39.8752H19.8955C19.6137 39.8752 19.3435 39.7632 19.1442 39.564C18.9449 39.3647 18.833 39.0945 18.833 38.8127C18.833 38.5309 18.9449 38.2606 19.1442 38.0614C19.3435 37.8621 19.6137 37.7502 19.8955 37.7502H20.2497V33.146H19.8955C19.6137 33.146 19.3435 33.0341 19.1442 32.8348C18.9449 32.6355 18.833 32.3653 18.833 32.0835C18.833 31.8017 18.9449 31.5315 19.1442 31.3322C19.3435 31.1329 19.6137 31.021 19.8955 31.021H20.2497V26.4168H19.8955C19.6137 26.4168 19.3435 26.3049 19.1442 26.1056C18.9449 25.9064 18.833 25.6361 18.833 25.3543C18.833 25.0725 18.9449 24.8023 19.1442 24.603C19.3435 24.4038 19.6137 24.2918 19.8955 24.2918H20.2497V22.521ZM39.063 29.1623C38.5036 28.3183 37.744 27.6258 36.8518 27.1467C35.9597 26.6677 34.9629 26.4169 33.9503 26.4168H33.3538C32.9781 26.4168 32.6178 26.5661 32.3521 26.8318C32.0864 27.0974 31.9372 27.4578 31.9372 27.8335V28.4299C31.9337 29.8397 32.4194 31.2071 33.3113 32.2988C31.158 32.9335 29.1038 34.9692 29.1038 38.4585C29.1038 42.8147 31.6822 46.3692 32.977 47.8892C33.6726 48.7081 34.677 49.0835 35.6588 49.0835H35.7239C36.2435 49.0832 36.7572 48.9739 37.2319 48.7626C37.7065 48.5513 38.1315 48.2426 38.4793 47.8567C38.5436 47.7858 38.613 47.7216 38.6876 47.664C38.7327 47.6306 38.7873 47.6126 38.8434 47.6126C38.8995 47.6126 38.9541 47.6306 38.9993 47.664C39.0748 47.7207 39.1442 47.7849 39.2075 47.8567C39.5553 48.2426 39.9803 48.5513 40.455 48.7626C40.9296 48.9739 41.4434 49.0832 41.9629 49.0835H42.0267C43.0084 49.0835 44.0143 48.7081 44.7098 47.8892C46.0047 46.3692 48.583 42.8147 48.583 38.4585C48.583 34.1773 45.4918 32.0835 42.9163 32.0835C41.7207 32.0835 40.7573 32.3045 40.1028 32.5198C40.1805 31.6452 40.4896 30.807 40.9985 30.0914C41.5075 29.3758 42.1978 28.8087 42.9985 28.4483C43.2555 28.3326 43.456 28.1195 43.5559 27.856C43.6558 27.5924 43.6469 27.3 43.5312 27.043C43.4155 26.786 43.2024 26.5855 42.9388 26.4856C42.6753 26.3857 42.3828 26.3946 42.1258 26.5103C40.8685 27.0773 39.804 27.999 39.063 29.1623ZM34.0636 28.5418C35.0876 28.5708 36.0616 28.9905 36.7858 29.715C37.51 30.4395 37.9295 31.4137 37.958 32.4377C36.9338 32.4091 35.9594 31.9895 35.2349 31.265C34.5104 30.5405 34.0907 29.566 34.0622 28.5418M32.9189 39.4856C32.8052 38.8091 32.9118 38.114 33.223 37.5026C33.5341 36.8913 34.0334 36.396 34.6473 36.0898C34.7721 36.0274 34.908 35.9902 35.0472 35.9803C35.1864 35.9704 35.3262 35.988 35.4586 36.0322C35.591 36.0763 35.7135 36.1461 35.8189 36.2375C35.9243 36.329 36.0107 36.4403 36.0731 36.5651C36.1355 36.69 36.1728 36.8259 36.1827 36.9651C36.1926 37.1043 36.1749 37.2441 36.1308 37.3765C36.0867 37.5089 36.0169 37.6313 35.9254 37.7367C35.834 37.8422 35.7227 37.9286 35.5978 37.991C35.3904 38.094 35.2218 38.2611 35.1169 38.4676C35.012 38.6741 34.9765 38.9088 35.0156 39.1371L35.1091 39.6995C35.132 39.8372 35.1275 39.978 35.096 40.1139C35.0644 40.2499 35.0064 40.3783 34.9253 40.4918C34.8441 40.6053 34.7414 40.7018 34.6229 40.7756C34.5045 40.8494 34.3727 40.8992 34.235 40.9221C34.0973 40.945 33.9565 40.9405 33.8206 40.909C33.6846 40.8774 33.5562 40.8194 33.4427 40.7382C33.3292 40.6571 33.2327 40.5543 33.1589 40.4359C33.0851 40.3175 33.0353 40.1857 33.0124 40.048L32.9189 39.4856Z" fill="#B497D6"/>
</svg>
