<svg width="68" height="68" viewBox="0 0 68 68" fill="none" xmlns="http://www.w3.org/2000/svg">
<rect width="68" height="68" rx="34" fill="#F5F2FA"/>
<path d="M39.336 33.568L34 22L23.3734 45.0333C23.28 45.3 23.3507 45.5987 23.5534 45.796C23.7534 45.9933 24.052 46.0533 24.3134 45.9507L34 42.6667M43.3334 42V42.0133M46.1614 44.828C46.7209 44.2686 47.102 43.5559 47.2564 42.78C47.4109 42.004 47.3317 41.1997 47.029 40.4687C46.7263 39.7377 46.2136 39.1129 45.5558 38.6734C44.898 38.2338 44.1245 37.9991 43.3334 37.9991C42.5422 37.9991 41.7688 38.2338 41.111 38.6734C40.4531 39.1129 39.9405 39.7377 39.6377 40.4687C39.335 41.1997 39.2559 42.004 39.4103 42.78C39.5648 43.5559 39.9458 44.2686 40.5054 44.828C41.0627 45.3862 42.0054 46.2213 43.3334 47.3333C44.7351 46.1467 45.6778 45.3116 46.1614 44.828Z" stroke="#B497D6" stroke-width="2" stroke-linecap="round" stroke-linejoin="round"/>
</svg>
