<svg width="68" height="68" viewBox="0 0 68 68" fill="none" xmlns="http://www.w3.org/2000/svg">
<rect width="68" height="68" rx="34" fill="#F5F2FA"/>
<path d="M36 39.3335C36 39.8639 35.7893 40.3726 35.4142 40.7477C35.0391 41.1228 34.5304 41.3335 34 41.3335C33.4696 41.3335 32.9609 41.1228 32.5858 40.7477C32.2107 40.3726 32 39.8639 32 39.3335C32 38.8031 32.2107 38.2944 32.5858 37.9193C32.9609 37.5442 33.4696 37.3335 34 37.3335C34.5304 37.3335 35.0391 37.5442 35.4142 37.9193C35.7893 38.2944 36 38.8031 36 39.3335Z" fill="#B497D6"/>
<path d="M37.1293 18.8799L41.3693 24.8212L44.1653 23.8679L46.7173 31.3332H48V47.3332H20V31.3332H20.68V31.3199L21.544 31.3279L37.1293 18.8799ZM30.5293 31.3332H43.9L42.5173 27.2892L40.488 27.9385L30.5293 31.3332ZM28.452 29.2225L38.7333 25.7199L36.5947 22.7199L28.452 29.2225ZM25.3333 33.9999H22.6667V36.6665C23.3739 36.6665 24.0522 36.3856 24.5523 35.8855C25.0524 35.3854 25.3333 34.7071 25.3333 33.9999ZM38.6667 39.3332C38.6667 38.7204 38.546 38.1135 38.3114 37.5474C38.0769 36.9812 37.7332 36.4667 37.2998 36.0334C36.8665 35.6 36.352 35.2563 35.7859 35.0218C35.2197 34.7873 34.6128 34.6665 34 34.6665C33.3872 34.6665 32.7803 34.7873 32.2141 35.0218C31.648 35.2563 31.1335 35.6 30.7002 36.0334C30.2668 36.4667 29.9231 36.9812 29.6886 37.5474C29.454 38.1135 29.3333 38.7204 29.3333 39.3332C29.3333 40.5709 29.825 41.7579 30.7002 42.633C31.5753 43.5082 32.7623 43.9999 34 43.9999C35.2377 43.9999 36.4247 43.5082 37.2998 42.633C38.175 41.7579 38.6667 40.5709 38.6667 39.3332ZM45.3333 44.6665V41.9999C44.6261 41.9999 43.9478 42.2808 43.4477 42.7809C42.9476 43.281 42.6667 43.9593 42.6667 44.6665H45.3333ZM42.6667 33.9999C42.6667 34.7071 42.9476 35.3854 43.4477 35.8855C43.9478 36.3856 44.6261 36.6665 45.3333 36.6665V33.9999H42.6667ZM22.6667 44.6665H25.3333C25.3333 43.9593 25.0524 43.281 24.5523 42.7809C24.0522 42.2808 23.3739 41.9999 22.6667 41.9999V44.6665Z" fill="#B497D6"/>
</svg>
