<svg width="68" height="68" viewBox="0 0 68 68" fill="none" xmlns="http://www.w3.org/2000/svg">
<rect width="68" height="68" rx="34" fill="#F5F2FA"/>
<path d="M45.2 35.6V40.4L40.4 35.6H30.8C29.9513 35.6 29.1374 35.2629 28.5373 34.6627C27.9371 34.0626 27.6 33.2487 27.6 32.4V21.2C27.6 19.44 29.04 18 30.8 18H46.8C47.6487 18 48.4626 18.3371 49.0627 18.9373C49.6629 19.5374 50 20.3513 50 21.2V32.4C50 33.2487 49.6629 34.0626 49.0627 34.6627C48.4626 35.2629 47.6487 35.6 46.8 35.6H45.2ZM40.4 38.8V42C40.4 42.8487 40.0629 43.6626 39.4627 44.2627C38.8626 44.8629 38.0487 45.2 37.2 45.2H27.6L22.8 50V45.2H21.2C20.3513 45.2 19.5374 44.8629 18.9373 44.2627C18.3371 43.6626 18 42.8487 18 42V30.8C18 29.04 19.44 27.6 21.2 27.6H24.4V32.4C24.4 34.0974 25.0743 35.7253 26.2745 36.9255C27.4747 38.1257 29.1026 38.8 30.8 38.8H40.4Z" fill="#B497D6"/>
</svg>
