<svg width="68" height="68" viewBox="0 0 68 68" fill="none" xmlns="http://www.w3.org/2000/svg">
<rect width="68" height="68" rx="34" fill="#FAFAFA"/>
<path d="M44.6667 20.6665H23.3334C21.8667 20.6665 20.6801 21.8665 20.6801 23.3332L20.6667 47.3332L26.0001 41.9998H44.6667C46.1334 41.9998 47.3334 40.7998 47.3334 39.3332V23.3332C47.3334 21.8665 46.1334 20.6665 44.6667 20.6665ZM27.3334 29.9998H40.6667C41.4001 29.9998 42.0001 30.5998 42.0001 31.3332C42.0001 32.0665 41.4001 32.6665 40.6667 32.6665H27.3334C26.6001 32.6665 26.0001 32.0665 26.0001 31.3332C26.0001 30.5998 26.6001 29.9998 27.3334 29.9998ZM35.3334 36.6665H27.3334C26.6001 36.6665 26.0001 36.0665 26.0001 35.3332C26.0001 34.5998 26.6001 33.9998 27.3334 33.9998H35.3334C36.0667 33.9998 36.6667 34.5998 36.6667 35.3332C36.6667 36.0665 36.0667 36.6665 35.3334 36.6665ZM40.6667 28.6665H27.3334C26.6001 28.6665 26.0001 28.0665 26.0001 27.3332C26.0001 26.5998 26.6001 25.9998 27.3334 25.9998H40.6667C41.4001 25.9998 42.0001 26.5998 42.0001 27.3332C42.0001 28.0665 41.4001 28.6665 40.6667 28.6665Z" fill="#B497D6"/>
</svg>
