<svg width="68" height="68" viewBox="0 0 68 68" fill="none" xmlns="http://www.w3.org/2000/svg">
<rect width="68" height="68" rx="34" fill="#F5F2FA"/>
<path fill-rule="evenodd" clip-rule="evenodd" d="M34 18C36.884 18 39.376 19.63 40.63 22.01C42.5993 22.1179 44.4523 22.9762 45.8083 24.4084C47.1642 25.8406 47.9199 27.7378 47.92 29.71L47.896 30.316C47.7956 31.5735 47.3879 32.7871 46.7085 33.8501C46.0292 34.913 45.0991 35.7928 44 36.412V46.5C44 47.4283 43.6313 48.3185 42.9749 48.9749C42.3185 49.6313 41.4283 50 40.5 50H27.5C26.5717 50 25.6815 49.6313 25.0251 48.9749C24.3687 48.3185 24 47.4283 24 46.5V36.458C22.8804 35.8447 21.9308 34.9626 21.2368 33.8912C20.5427 32.8197 20.126 31.5925 20.024 30.32L20 29.71C20.0006 27.7246 20.7669 25.8159 22.1393 24.3813C23.5117 22.9466 25.3846 22.0966 27.368 22.008C28.0038 20.7995 28.9575 19.7874 30.1263 19.0811C31.295 18.3748 32.6344 18.001 34 18ZM27 46.5C27 46.776 27.224 47 27.5 47H40.5C40.6326 47 40.7598 46.9473 40.8536 46.8536C40.9473 46.7598 41 46.6326 41 46.5V43H27V46.5ZM34 21C33.0656 21.0006 32.1546 21.2921 31.3934 21.834C30.6321 22.3759 30.0585 23.1413 29.752 24.024L29.364 25.144L28.188 25.024L27.71 25C26.461 25.0005 25.2633 25.4969 24.3801 26.3801C23.4969 27.2633 23.0005 28.461 23 29.71L23.014 30.082C23.158 31.922 24.368 33.468 26.034 34.102L27 34.472V40H41V34.46L41.946 34.082C42.9274 33.6949 43.7503 32.9893 44.2826 32.0783C44.8148 31.1674 45.0256 30.1041 44.8809 29.059C44.7363 28.0139 44.2446 27.0478 43.485 26.3157C42.7253 25.5836 41.7417 25.128 40.692 25.022L40.212 25C40.076 25 39.936 25.0067 39.792 25.02L38.628 25.12L38.244 24.02C37.9371 23.1387 37.3637 22.3746 36.6034 21.8335C35.843 21.2925 34.9332 21.0012 34 21Z" fill="#B497D6"/>
</svg>
