<svg width="68" height="68" viewBox="0 0 68 68" fill="none" xmlns="http://www.w3.org/2000/svg">
<rect width="68" height="68" rx="34" fill="#F5F2FA"/>
<path d="M37.3778 21.75C36.9278 22.5211 36.6667 23.418 36.6667 24.375V25.25H21.5556V37.5H36.6667V41H21.5556C19.5944 41 18 39.4305 18 37.5V25.25C18 23.3195 19.5944 21.75 21.5556 21.75H37.3778ZM36.6667 43.625C36.6667 44.582 36.9278 45.4789 37.3778 46.25H24.6667C23.9278 46.25 23.3333 45.6648 23.3333 44.9375C23.3333 44.2102 23.9278 43.625 24.6667 43.625H36.6667ZM42 21.75H47.3333C48.8056 21.75 50 22.9258 50 24.375V43.625C50 45.0742 48.8056 46.25 47.3333 46.25H42C40.5278 46.25 39.3333 45.0742 39.3333 43.625V24.375C39.3333 22.9258 40.5278 21.75 42 21.75ZM43.3333 25.25C42.5944 25.25 42 25.8352 42 26.5625C42 27.2898 42.5944 27.875 43.3333 27.875H46C46.7389 27.875 47.3333 27.2898 47.3333 26.5625C47.3333 25.8352 46.7389 25.25 46 25.25H43.3333ZM43.3333 30.5C42.5944 30.5 42 31.0852 42 31.8125C42 32.5398 42.5944 33.125 43.3333 33.125H46C46.7389 33.125 47.3333 32.5398 47.3333 31.8125C47.3333 31.0852 46.7389 30.5 46 30.5H43.3333ZM46.4444 38.375C46.4444 37.9109 46.2571 37.4658 45.9237 37.1376C45.5903 36.8094 45.1382 36.625 44.6667 36.625C44.1952 36.625 43.743 36.8094 43.4096 37.1376C43.0762 37.4658 42.8889 37.9109 42.8889 38.375C42.8889 38.8391 43.0762 39.2842 43.4096 39.6124C43.743 39.9406 44.1952 40.125 44.6667 40.125C45.1382 40.125 45.5903 39.9406 45.9237 39.6124C46.2571 39.2842 46.4444 38.8391 46.4444 38.375Z" fill="#B497D6"/>
</svg>
