<svg width="68" height="68" viewBox="0 0 68 68" fill="none" xmlns="http://www.w3.org/2000/svg">
<rect width="68" height="68" rx="34" fill="#F5F2FA"/>
<path d="M47.3334 42C47.3334 43.4145 46.7715 44.771 45.7713 45.7712C44.7711 46.7714 43.4146 47.3333 42.0001 47.3333H38.0001C36.5856 47.3333 35.229 46.7714 34.2288 45.7712C33.2287 44.771 32.6667 43.4145 32.6667 42V39.3333H41.7201L45.4001 32.9733L47.4801 34.1733L44.4934 39.3333H47.3334V42ZM30.0001 47.3333H20.6667C20.6667 43.3333 20.6667 39.3333 21.1067 35.1067C21.4667 31.7333 22.1067 28.2133 22.8001 24.6667H22.0001V22H28.6667V24.6667H27.8667C28.5601 28.2133 29.2001 31.7333 29.5601 35.1067C30.0001 39.3333 30.0001 43.3333 30.0001 47.3333Z" fill="#B497D6"/>
</svg>
