<svg width="24" height="24" viewBox="0 0 22 23" fill="none" xmlns="http://www.w3.org/2000/svg">
<path d="M7.56181 2.59131L10.6993 0.104553C10.8805 -0.038578 11.1339 -0.0319869 11.3066 0.107377L14.4403 2.59152H18.9508C19.2194 2.59152 19.4367 2.80715 19.4367 3.07365V6.55117L20.958 7.75742C21.2949 8.02484 21.5559 8.3469 21.7314 8.71038C21.9089 9.07481 22 9.47688 22 9.9044V20.7626C22 21.3775 21.7457 21.9378 21.3376 22.3427C20.9295 22.7476 20.3648 23 19.7451 23H2.25391C1.63516 23 1.07239 22.7476 0.662418 22.3418C0.253395 21.9378 0 21.3775 0 20.7626V9.9044C0 9.4769 0.0911054 9.07481 0.268579 8.70946L0.281865 8.68403C0.458383 8.33092 0.713664 8.01734 1.04298 7.75745L2.56426 6.5512V3.07367C2.56426 2.80718 2.78158 2.59155 3.05015 2.59155L7.56181 2.59131ZM15.1007 9.00215C15.1007 9.38729 14.9422 9.73757 14.6879 9.98995L14.6565 10.0182C14.4041 10.2536 14.0653 10.3996 13.6923 10.3996C13.4095 10.3996 13.1448 10.3157 12.9236 10.1717C12.8306 10.3223 12.7205 10.4608 12.5953 10.5841C12.1872 10.989 11.6225 11.2395 11.0009 11.2395C10.3784 11.2395 9.81465 10.989 9.40658 10.5841C8.99851 10.1792 8.74606 9.61986 8.74606 9.00214C8.74606 8.38442 8.99851 7.82507 9.40658 7.42017C9.81465 7.01526 10.3784 6.76478 11.0009 6.76478C11.6235 6.76478 12.1872 7.01526 12.5953 7.42017C13.0033 7.82507 13.2558 8.38536 13.2558 9.01062C13.2586 9.12832 13.307 9.23283 13.3829 9.30817C13.4608 9.38632 13.5699 9.43435 13.6914 9.43435C13.8043 9.43435 13.9078 9.39291 13.9922 9.3157C14.0757 9.23283 14.1241 9.12831 14.127 9.00495C14.127 8.14522 13.7768 7.3693 13.2112 6.80807C12.6456 6.24684 11.8636 5.89939 10.9999 5.89939C10.1458 5.89939 9.37237 6.23744 8.80956 6.78547L8.78773 6.80807C8.22211 7.3693 7.87194 8.1452 7.87194 9.00214C7.87194 9.85907 8.22213 10.6359 8.78773 11.1972C9.35334 11.7585 10.1353 12.1059 11 12.1059C11.4337 12.1059 11.8446 12.0202 12.2147 11.8658C12.6019 11.7048 12.9502 11.4656 13.2397 11.1708C13.4266 10.9806 13.7331 10.9759 13.9248 11.1614C14.1166 11.3469 14.1213 11.6511 13.9343 11.8413C13.5557 12.2264 13.0992 12.5381 12.5905 12.7509C12.098 12.9571 11.5609 13.0711 11 13.0711C9.86877 13.0711 8.84282 12.6153 8.10162 11.8799C7.3595 11.1435 6.90112 10.1266 6.90112 9.00403C6.90112 7.88151 7.36045 6.8636 8.10258 6.12816L8.1301 6.10274C8.87032 5.38144 9.88483 4.93604 11.0007 4.93604C12.132 4.93604 13.1579 5.3918 13.8991 6.12817C14.6412 6.86453 15.1006 7.88151 15.1006 9.00404L15.1007 9.00215ZM11.9081 8.10195C11.6766 7.87218 11.3549 7.72907 11.0009 7.72907C10.646 7.72907 10.3252 7.87125 10.0937 8.10195C9.86208 8.33172 9.71785 8.65093 9.71785 9.00215C9.71785 9.35433 9.86115 9.67261 10.0937 9.90236C10.3252 10.1321 10.6469 10.2752 11.0009 10.2752C11.3549 10.2752 11.6766 10.1331 11.9081 9.90236C12.1359 9.67636 12.2792 9.36467 12.2839 9.00967C12.2839 8.64996 12.1406 8.33074 11.9081 8.10098V8.10195ZM19.2905 12.4061C19.2744 12.4212 19.2583 12.4353 19.2402 12.4485L14.8682 16.1237L19.3979 18.9015C19.6257 19.0409 19.6959 19.3366 19.5555 19.5625C19.415 19.7885 19.117 19.8582 18.8893 19.7189L13.8157 16.6078C13.7986 16.5993 13.7825 16.5889 13.7664 16.5776L11 14.8817L8.23363 16.5776C8.2175 16.5889 8.20136 16.5983 8.18428 16.6078L3.11072 19.7189C2.88296 19.8582 2.58496 19.7876 2.44452 19.5625C2.30406 19.3366 2.37524 19.0409 2.60205 18.9015L7.13181 16.1237L2.75977 12.4475C2.74268 12.4343 2.7256 12.4211 2.71042 12.406L0.971822 10.9446V20.7641C0.971822 21.1134 1.11607 21.4317 1.34857 21.6624C1.58014 21.8941 1.90089 22.0362 2.25394 22.0362H19.7452C20.0973 22.0362 20.418 21.8931 20.6505 21.6624C20.883 21.4317 21.0273 21.1134 21.0273 20.7641V10.9446L19.2887 12.406L19.2905 12.4061ZM18.4649 11.8392V3.55755H3.53696V11.8392L8.00112 15.5916L10.7466 13.9079C10.9108 13.8072 11.112 13.8156 11.2639 13.9126L14.0009 15.5906L18.465 11.8383L18.4649 11.8392Z" fill="#41255D"/>
</svg>
