<svg width="68" height="68" viewBox="0 0 68 68" fill="none" xmlns="http://www.w3.org/2000/svg">
<rect width="68" height="68" rx="34" fill="#F5F2FA"/>
<path d="M33.9997 39.3335C35.6663 39.3335 37.0832 38.7504 38.2503 37.5842C39.4175 36.4179 40.0006 35.0011 39.9997 33.3335C39.9988 31.6659 39.4157 30.2495 38.2503 29.0842C37.085 27.9188 35.6681 27.3353 33.9997 27.3335C32.3312 27.3317 30.9148 27.9153 29.7503 29.0842C28.5859 30.2531 28.0023 31.6695 27.9997 33.3335C27.997 34.9975 28.5806 36.4144 29.7503 37.5842C30.9201 38.7539 32.3366 39.3371 33.9997 39.3335ZM33.9997 36.9335C32.9997 36.9335 32.1499 36.5833 31.4503 35.8828C30.7508 35.1824 30.4006 34.3326 30.3997 33.3335C30.3988 32.3344 30.749 31.4846 31.4503 30.7842C32.1517 30.0837 33.0015 29.7335 33.9997 29.7335C34.9979 29.7335 35.8481 30.0837 36.5503 30.7842C37.2526 31.4846 37.6023 32.3344 37.5997 33.3335C37.597 34.3326 37.2472 35.1828 36.5503 35.8842C35.8535 36.5855 35.0032 36.9353 33.9997 36.9335ZM33.9997 43.3335C30.7552 43.3335 27.7997 42.4282 25.133 40.6175C22.4663 38.8068 20.533 36.3788 19.333 33.3335C20.533 30.2891 22.4663 27.8615 25.133 26.0508C27.7997 24.2402 30.7552 23.3344 33.9997 23.3335C37.2441 23.3326 40.1997 24.2384 42.8663 26.0508C45.533 27.8633 47.4663 30.2908 48.6663 33.3335C47.4663 36.3779 45.533 38.8059 42.8663 40.6175C40.1997 42.4291 37.2441 43.3344 33.9997 43.3335Z" fill="#B497D6"/>
</svg>
