<svg width="68" height="68" viewBox="0 0 68 68" fill="none" xmlns="http://www.w3.org/2000/svg">
<rect width="68" height="68" rx="34" fill="#F5F2FA"/>
<path fill-rule="evenodd" clip-rule="evenodd" d="M29.3332 23.3333C29.3332 22.9797 29.1927 22.6406 28.9426 22.3905C28.6926 22.1405 28.3535 22 27.9998 22H23.9998C23.6462 22 23.3071 22.1405 23.057 22.3905C22.807 22.6406 22.6665 22.9797 22.6665 23.3333V44.6667C22.6665 45.0203 22.807 45.3594 23.057 45.6095C23.3071 45.8595 23.6462 46 23.9998 46H27.9998C28.3535 46 28.6926 45.8595 28.9426 45.6095C29.1927 45.3594 29.3332 45.0203 29.3332 44.6667V23.3333ZM25.3332 24.6667V43.3333H26.6665V24.6667H25.3332Z" fill="#B497D6"/>
<path d="M30.6665 32.2065V44.6665C30.6665 45.0202 30.807 45.3593 31.057 45.6094C31.3071 45.8594 31.6462 45.9999 31.9998 45.9999H35.9998C36.3535 45.9999 36.6926 45.8594 36.9426 45.6094C37.1927 45.3593 37.3332 45.0202 37.3332 44.6665V35.6652H37.1665C36.3167 35.6656 35.4724 35.5282 34.6665 35.2585V43.3332H33.3332V34.6665C32.2648 34.0655 31.3516 33.2231 30.6665 32.2065Z" fill="#B497D6"/>
<path fill-rule="evenodd" clip-rule="evenodd" d="M37.1667 33.6667C37.2227 33.6667 37.2783 33.6658 37.3334 33.664C38.3625 33.6365 39.3657 33.3355 40.2401 32.792L43.7241 36.276L45.6094 34.3907L42.1254 30.9067C42.806 29.8087 43.1029 28.5158 42.9695 27.2308C42.836 25.9459 42.2798 24.7416 41.3881 23.8069C40.4964 22.8721 39.3197 22.2598 38.0424 22.066C36.7652 21.8722 35.4598 22.1079 34.3309 22.736C33.2021 23.3642 32.3137 24.3493 31.8051 25.5368C31.2965 26.7243 31.1965 28.0471 31.5207 29.2976C31.845 30.5481 32.5752 31.6555 33.5968 32.4463C34.6184 33.237 35.8735 33.6662 37.1654 33.6667M37.1654 31C36.7327 31.0002 36.3046 30.9116 35.9076 30.7395C35.5106 30.5675 35.1531 30.3158 34.8574 30C34.3591 29.4689 34.0591 28.7822 34.0079 28.0557C33.9568 27.3292 34.1576 26.6073 34.5766 26.0116C34.9956 25.4159 35.6071 24.9828 36.3081 24.7853C37.0091 24.5878 37.7568 24.638 38.4251 24.9274C39.0935 25.2168 39.6416 25.7278 39.9772 26.3741C40.3128 27.0205 40.4154 27.7628 40.2676 28.4759C40.1198 29.1891 39.7307 29.8295 39.1659 30.2892C38.6011 30.749 37.895 31 37.1667 31M40.0001 38C39.6464 38 39.3073 38.1405 39.0572 38.3905C38.8072 38.6406 38.6667 38.9797 38.6667 39.3333V44.6667C38.6667 45.0203 38.8072 45.3594 39.0572 45.6095C39.3073 45.8595 39.6464 46 40.0001 46H44.0001C44.3537 46 44.6928 45.8595 44.9429 45.6095C45.1929 45.3594 45.3334 45.0203 45.3334 44.6667V39.3333C45.3334 38.9797 45.1929 38.6406 44.9429 38.3905C44.6928 38.1405 44.3537 38 44.0001 38H40.0001ZM41.3334 43.3333V40.6667H42.6667V43.3333H41.3334Z" fill="#B497D6"/>
</svg>
