<svg width="29" height="29" viewBox="0 0 29 29" fill="none" xmlns="http://www.w3.org/2000/svg">
<rect width="29" height="29" rx="14.5" fill="#F5F2FA"/>
<path fill-rule="evenodd" clip-rule="evenodd" d="M16.997 7.71997C17.102 7.61467 17.2359 7.54296 17.3817 7.51394C17.5275 7.48492 17.6787 7.49989 17.816 7.55697L19.943 8.43897C20.1264 8.51471 20.2724 8.66006 20.3488 8.84318C20.4253 9.0263 20.4261 9.23227 20.351 9.41597L19.482 11.543C19.4259 11.6803 19.3302 11.7979 19.2072 11.8809C19.0842 11.9639 18.9394 12.0085 18.791 12.0092C18.6426 12.0098 18.4974 11.9664 18.3737 11.8845C18.25 11.8026 18.1533 11.6858 18.096 11.549L17.753 10.729L9.115 14.42C9.02439 14.4587 8.92703 14.4792 8.82849 14.4803C8.72995 14.4814 8.63216 14.4631 8.54069 14.4265C8.44923 14.3898 8.36588 14.3355 8.29541 14.2666C8.22495 14.1977 8.16874 14.1156 8.13 14.025C8.09126 13.9344 8.07075 13.837 8.06963 13.7385C8.06852 13.6399 8.08682 13.5421 8.1235 13.4507C8.16018 13.3592 8.21451 13.2758 8.2834 13.2054C8.35229 13.1349 8.43439 13.0787 8.525 13.04L17.173 9.34497L16.837 8.53997C16.7793 8.40283 16.7638 8.25164 16.7922 8.10562C16.8207 7.95961 16.892 7.82537 16.997 7.71997ZM19.75 12.98C20.0152 12.98 20.2696 13.0853 20.4571 13.2729C20.6446 13.4604 20.75 13.7147 20.75 13.98V20.98C20.75 21.1126 20.6973 21.2398 20.6036 21.3335C20.5098 21.4273 20.3826 21.48 20.25 21.48H17.75C17.6174 21.48 17.4902 21.4273 17.3964 21.3335C17.3027 21.2398 17.25 21.1126 17.25 20.98V13.98C17.25 13.7147 17.3554 13.4604 17.5429 13.2729C17.7304 13.0853 17.9848 12.98 18.25 12.98H19.75ZM15.457 14.772C15.2693 14.5848 15.0151 14.4798 14.75 14.48H13.25C12.9848 14.48 12.7304 14.5853 12.5429 14.7729C12.3554 14.9604 12.25 15.2147 12.25 15.48V20.98C12.25 21.1126 12.3027 21.2398 12.3964 21.3335C12.4902 21.4273 12.6174 21.48 12.75 21.48H15.25C15.3826 21.48 15.5098 21.4273 15.6036 21.3335C15.6973 21.2398 15.75 21.1126 15.75 20.98V15.48C15.7501 15.3485 15.7243 15.2183 15.674 15.0968C15.6237 14.9753 15.55 14.8649 15.457 14.772ZM9.75 15.98C10.0152 15.98 10.2696 16.0853 10.4571 16.2729C10.6446 16.4604 10.75 16.7147 10.75 16.98V20.98C10.75 21.1126 10.6973 21.2398 10.6036 21.3335C10.5098 21.4273 10.3826 21.48 10.25 21.48H7.75C7.61739 21.48 7.49021 21.4273 7.39645 21.3335C7.30268 21.2398 7.25 21.1126 7.25 20.98V16.98C7.25 16.7147 7.35536 16.4604 7.54289 16.2729C7.73043 16.0853 7.98478 15.98 8.25 15.98H9.75Z" fill="#B497D6"/>
</svg>
