<svg width="68" height="68" viewBox="0 0 68 68" fill="none" xmlns="http://www.w3.org/2000/svg">
<rect width="68" height="68" rx="34" fill="#FAFAFA"/>
<path fill-rule="evenodd" clip-rule="evenodd" d="M35.3333 20.6668C35.3333 20.3132 35.1929 19.9741 34.9428 19.724C34.6928 19.474 34.3536 19.3335 34 19.3335C33.6464 19.3335 33.3072 19.474 33.0572 19.724C32.8071 19.9741 32.6667 20.3132 32.6667 20.6668V22.0002H26C24.9391 22.0002 23.9217 22.4216 23.1716 23.1717C22.4214 23.9219 22 24.9393 22 26.0002V42.0002C22 43.061 22.4214 44.0784 23.1716 44.8286C23.9217 45.5787 24.9391 46.0002 26 46.0002H32.6667V47.3335C32.6667 47.6871 32.8071 48.0263 33.0572 48.2763C33.3072 48.5264 33.6464 48.6668 34 48.6668C34.3536 48.6668 34.6928 48.5264 34.9428 48.2763C35.1929 48.0263 35.3333 47.6871 35.3333 47.3335V46.0002C35.687 46.0002 36.0261 45.8597 36.2761 45.6096C36.5262 45.3596 36.6667 45.0205 36.6667 44.6668C36.6667 44.3132 36.5262 43.9741 36.2761 43.724C36.0261 43.474 35.687 43.3335 35.3333 43.3335V24.6668C35.687 24.6668 36.0261 24.5264 36.2761 24.2763C36.5262 24.0263 36.6667 23.6871 36.6667 23.3335C36.6667 22.9799 36.5262 22.6407 36.2761 22.3907C36.0261 22.1406 35.687 22.0002 35.3333 22.0002V20.6668ZM40.6667 22.0002C40.313 22.0002 39.9739 22.1406 39.7239 22.3907C39.4738 22.6407 39.3333 22.9799 39.3333 23.3335C39.3333 23.6871 39.4738 24.0263 39.7239 24.2763C39.9739 24.5264 40.313 24.6668 40.6667 24.6668H42C42.3536 24.6668 42.6928 24.8073 42.9428 25.0574C43.1929 25.3074 43.3333 25.6465 43.3333 26.0002V27.3335C43.3333 27.6871 43.4738 28.0263 43.7239 28.2763C43.9739 28.5264 44.313 28.6668 44.6667 28.6668C45.0203 28.6668 45.3594 28.5264 45.6095 28.2763C45.8595 28.0263 46 27.6871 46 27.3335V26.0002C46 24.9393 45.5786 23.9219 44.8284 23.1717C44.0783 22.4216 43.0609 22.0002 42 22.0002H40.6667ZM46 32.6668C46 32.3132 45.8595 31.9741 45.6095 31.724C45.3594 31.474 45.0203 31.3335 44.6667 31.3335C44.313 31.3335 43.9739 31.474 43.7239 31.724C43.4738 31.9741 43.3333 32.3132 43.3333 32.6668V35.3335C43.3333 35.6871 43.4738 36.0263 43.7239 36.2763C43.9739 36.5264 44.313 36.6668 44.6667 36.6668C45.0203 36.6668 45.3594 36.5264 45.6095 36.2763C45.8595 36.0263 46 35.6871 46 35.3335V32.6668ZM46 40.6668C46 40.3132 45.8595 39.9741 45.6095 39.724C45.3594 39.474 45.0203 39.3335 44.6667 39.3335C44.313 39.3335 43.9739 39.474 43.7239 39.724C43.4738 39.9741 43.3333 40.3132 43.3333 40.6668V42.0002C43.3333 42.3538 43.1929 42.6929 42.9428 42.943C42.6928 43.193 42.3536 43.3335 42 43.3335H40.6667C40.313 43.3335 39.9739 43.474 39.7239 43.724C39.4738 43.9741 39.3333 44.3132 39.3333 44.6668C39.3333 45.0205 39.4738 45.3596 39.7239 45.6096C39.9739 45.8597 40.313 46.0002 40.6667 46.0002H42C43.0609 46.0002 44.0783 45.5787 44.8284 44.8286C45.5786 44.0784 46 43.061 46 42.0002V40.6668Z" fill="#B497D6"/>
</svg>
