<svg width="68" height="68" viewBox="0 0 68 68" fill="none" xmlns="http://www.w3.org/2000/svg">
<rect width="68" height="68" rx="34" fill="#F5F2FA"/>
<path d="M33.4066 22.8162L33.5106 22.8226H37.1842L37.269 22.8178C37.7244 22.768 38.184 22.7712 38.6386 22.8274C39.2478 22.857 39.8421 23.0256 40.3762 23.3202C41.3842 23.7778 42.2642 24.5154 42.8914 25.4802C43.4695 26.3668 43.7965 27.3935 43.8376 28.4511C43.8788 29.5088 43.6325 30.5578 43.125 31.4866L37.981 26.277C37.9064 26.2018 37.8177 26.1421 37.7199 26.1015C37.6221 26.0608 37.5173 26.04 37.4114 26.0402H35.2818C35.1074 26.04 34.9377 26.0967 34.7986 26.2018L31.3618 28.805C31.1516 28.9637 30.909 29.074 30.6513 29.1279C30.3935 29.1818 30.127 29.1781 29.8709 29.1169C29.6148 29.0557 29.3753 28.9387 29.1697 28.7741C28.9642 28.6095 28.7975 28.4015 28.6818 28.165C28.5046 27.7996 28.4598 27.384 28.5549 26.9892C28.65 26.5944 28.8792 26.2448 29.2034 26.0002L33.4066 22.8162ZM27.0114 36.9842L26.989 37.005L25.7682 38.221L25.7474 38.2402C25.5657 38.4105 25.325 38.5035 25.076 38.4996C24.827 38.4957 24.5893 38.3952 24.413 38.2194C24.3237 38.1316 24.2528 38.0268 24.2045 37.9113C24.1561 37.7958 24.1312 37.6718 24.1312 37.5466C24.1312 37.4214 24.1561 37.2974 24.2045 37.1819C24.2528 37.0664 24.3237 36.9616 24.413 36.8738L25.6354 35.6594C25.8153 35.4801 26.059 35.3794 26.313 35.3794C26.567 35.3794 26.8106 35.4801 26.9906 35.6594C27.3586 36.0242 27.365 36.6114 27.0114 36.9842ZM26.8818 39.3682C26.5298 39.741 26.5362 40.3282 26.9026 40.693C27.0825 40.8723 27.3262 40.973 27.5802 40.973C27.8342 40.973 28.0778 40.8723 28.2578 40.693L29.4802 39.4786C29.5805 39.3792 29.6573 39.2586 29.7049 39.1256C29.7526 38.9927 29.7699 38.8508 29.7557 38.7103C29.7414 38.5698 29.6959 38.4342 29.6225 38.3136C29.5491 38.193 29.4496 38.0902 29.3314 38.013C29.1515 37.8942 28.937 37.8394 28.7222 37.8574C28.5074 37.8754 28.305 37.9652 28.1474 38.1122L28.125 38.133L26.9042 39.3474L26.8818 39.3682ZM23.9986 33.685C24.0878 33.7728 24.1587 33.8776 24.2071 33.9931C24.2555 34.1086 24.2804 34.2326 24.2804 34.3578C24.2804 34.483 24.2555 34.607 24.2071 34.7225C24.1587 34.838 24.0878 34.9428 23.9986 35.0306L22.7762 36.245C22.5962 36.4243 22.3526 36.525 22.0986 36.525C21.8446 36.525 21.6009 36.4243 21.421 36.245C21.3317 36.1572 21.2608 36.0524 21.2125 35.9369C21.1641 35.8214 21.1392 35.6974 21.1392 35.5722C21.1392 35.447 21.1641 35.323 21.2125 35.2075C21.2608 35.092 21.3317 34.9872 21.421 34.8994L22.6434 33.6834C22.8233 33.5041 23.067 33.4034 23.321 33.4034C23.575 33.4034 23.8187 33.5041 23.9986 33.6834M31.9698 40.605C32.059 40.6928 32.1299 40.7976 32.1783 40.9131C32.2267 41.0286 32.2516 41.1526 32.2516 41.2778C32.2516 41.403 32.2267 41.527 32.1783 41.6425C32.1299 41.758 32.059 41.8628 31.9698 41.9506L30.7474 43.1666C30.5674 43.3459 30.3238 43.4466 30.0698 43.4466C29.8158 43.4466 29.5721 43.3459 29.3922 43.1666C29.2395 43.0162 29.1425 42.8183 29.1172 42.6054C29.0919 42.3926 29.1398 42.1774 29.253 41.9954L29.2578 41.989C29.296 41.9276 29.3411 41.8707 29.3922 41.8194L30.6146 40.605C30.7945 40.4257 31.0382 40.325 31.2922 40.325C31.5462 40.325 31.7898 40.4257 31.9698 40.605ZM23.6498 25.0402C24.5394 24.1566 25.6335 23.5063 26.8348 23.1471C28.0361 22.7879 29.3075 22.7308 30.5362 22.981L28.237 24.725C27.8846 24.992 27.5884 25.3261 27.3655 25.708C27.1426 26.0898 26.9974 26.512 26.9382 26.9502C26.8791 27.3884 26.9071 27.834 27.0207 28.2613C27.1343 28.6886 27.3312 29.0893 27.6002 29.4402C28.1442 30.1498 28.9469 30.6154 29.833 30.7353C30.7191 30.8552 31.6167 30.6197 32.3298 30.0802L35.5522 27.6402H37.0066L40.1074 30.7202L40.1138 30.7122L42.6866 33.3186L42.725 33.3554L44.109 34.7394C44.4022 35.0361 44.5707 35.4338 44.5799 35.8509C44.589 36.2679 44.4381 36.6727 44.1581 36.9819C43.8782 37.2912 43.4904 37.4815 43.0745 37.5137C42.6586 37.546 42.2461 37.4178 41.9218 37.1554L41.805 37.0402L41.7186 36.965L40.3586 35.605C40.2086 35.4548 40.005 35.3703 39.7927 35.3702C39.5805 35.37 39.3768 35.4542 39.2266 35.6042C39.0764 35.7542 38.9919 35.9577 38.9917 36.17C38.9916 36.3823 39.0758 36.586 39.2258 36.7362L40.669 38.1794C40.7245 38.2327 40.7804 38.2845 40.837 38.3346L40.885 38.3826C41.0925 38.5899 41.2091 38.8711 41.2093 39.1644C41.2094 39.4577 41.0931 39.7391 40.8858 39.9466C40.6785 40.1541 40.3973 40.2708 40.1039 40.2709C39.8106 40.2711 39.5293 40.1547 39.3218 39.9474L39.109 39.7362C38.9964 39.624 38.853 39.5478 38.697 39.5175C38.541 39.4871 38.3795 39.5039 38.2331 39.5657C38.0866 39.6275 37.9619 39.7315 37.8749 39.8644C37.7878 39.9974 37.7423 40.1533 37.7442 40.3122C37.7421 40.4197 37.7617 40.5266 37.8018 40.6264C37.842 40.7262 37.9018 40.8169 37.9778 40.893L38.2578 41.173C38.3516 41.2668 38.426 41.3782 38.4768 41.5008C38.5276 41.6233 38.5537 41.7547 38.5537 41.8874C38.5537 42.0201 38.5276 42.1515 38.4768 42.274C38.426 42.3966 38.3516 42.508 38.2578 42.6018C38.164 42.6956 38.0526 42.77 37.93 42.8208C37.8074 42.8716 37.6761 42.8977 37.5434 42.8977C37.4107 42.8977 37.2793 42.8716 37.1568 42.8208C37.0342 42.77 36.9228 42.6956 36.829 42.6018L36.6866 42.4578C36.6379 42.4011 36.5872 42.3461 36.5346 42.293L36.2738 42.0322C36.1229 41.8865 35.9208 41.8058 35.7111 41.8077C35.5013 41.8095 35.3007 41.8936 35.1523 42.0419C35.004 42.1903 34.9199 42.3909 34.918 42.6007C34.9162 42.8104 34.9969 43.0125 35.1426 43.1634L35.3378 43.3586C35.3623 43.3906 35.389 43.4221 35.4178 43.453L35.4962 43.5298C35.6558 43.7369 35.7312 43.9965 35.7075 44.2569C35.6838 44.5172 35.5626 44.7589 35.3682 44.9337C35.1738 45.1085 34.9205 45.2034 34.6592 45.1994C34.3978 45.1954 34.1476 45.0928 33.9586 44.9122L32.5746 43.6082L33.1058 43.0802C33.3435 42.8446 33.5322 42.5642 33.661 42.2553C33.7897 41.9463 33.856 41.6149 33.856 41.2802C33.856 40.9455 33.7897 40.6141 33.661 40.3052C33.5322 39.9962 33.3435 39.7158 33.1058 39.4802C32.6422 39.0183 32.0192 38.7515 31.365 38.7346C31.3473 38.0837 31.079 37.4647 30.6162 37.0066C30.153 36.5451 29.5307 36.2783 28.877 36.261C28.8588 35.6098 28.59 34.9908 28.1266 34.533C27.8305 34.2371 27.4663 34.0184 27.066 33.8959C26.6658 33.7735 26.2415 33.751 25.8306 33.8306C25.7263 33.3478 25.4846 32.9055 25.1346 32.557C24.6838 32.1107 24.0841 31.8464 23.4505 31.8148C22.8169 31.7832 22.194 31.9865 21.701 32.3858C21.3432 31.0987 21.3355 29.7395 21.6786 28.4484C22.0218 27.1574 22.7034 25.9814 23.653 25.0418" fill="#B497D6"/>
</svg>
