<svg width="68" height="68" viewBox="0 0 68 68" fill="none" xmlns="http://www.w3.org/2000/svg">
<rect width="68" height="68" rx="34" fill="#FAFAFA"/>
<path d="M32.0001 20.6665C34.128 20.6664 36.2131 21.2653 38.0165 22.3948C39.8199 23.5243 41.269 25.1387 42.1977 27.0533C43.1265 28.9679 43.4975 31.1052 43.2682 33.2208C43.039 35.3364 42.2188 37.3447 40.9014 39.0158L45.7708 43.8852C46.0136 44.1366 46.148 44.4734 46.145 44.823C46.142 45.1726 46.0017 45.507 45.7545 45.7543C45.5073 46.0015 45.1729 46.1417 44.8233 46.1447C44.4737 46.1478 44.1369 46.0134 43.8854 45.7705L39.0161 40.9012C37.5967 42.0198 35.9304 42.7827 34.1561 43.1264C32.3819 43.47 30.5512 43.3844 28.8168 42.8766C27.0824 42.3689 25.4945 41.4537 24.1857 40.2075C22.877 38.9612 21.8852 37.4201 21.2931 35.7126C20.7011 34.0051 20.526 32.1808 20.7824 30.3919C21.0388 28.603 21.7193 26.9013 22.7671 25.4288C23.8149 23.9564 25.1996 22.7559 26.8058 21.9274C28.4119 21.099 30.1929 20.6667 32.0001 20.6665ZM32.0001 23.3332C29.7016 23.3332 27.4972 24.2463 25.8718 25.8716C24.2465 27.4969 23.3334 29.7013 23.3334 31.9998C23.3334 34.2984 24.2465 36.5028 25.8718 38.1281C27.4972 39.7534 29.7016 40.6665 32.0001 40.6665C34.2986 40.6665 36.503 39.7534 38.1284 38.1281C39.7537 36.5028 40.6668 34.2984 40.6668 31.9998C40.6668 29.7013 39.7537 27.4969 38.1284 25.8716C36.503 24.2463 34.2986 23.3332 32.0001 23.3332ZM32.0001 24.6665C33.945 24.6665 35.8103 25.4391 37.1855 26.8144C38.5608 28.1897 39.3334 30.0549 39.3334 31.9998C39.3334 33.9448 38.5608 35.81 37.1855 37.1853C35.8103 38.5606 33.945 39.3332 32.0001 39.3332C30.0552 39.3332 28.1899 38.5606 26.8146 37.1853C25.4394 35.81 24.6668 33.9448 24.6668 31.9998C24.6668 30.0549 25.4394 28.1897 26.8146 26.8144C28.1899 25.4391 30.0552 24.6665 32.0001 24.6665Z" fill="#B497D6"/>
</svg>
