<svg width="68" height="68" viewBox="0 0 68 68" fill="none" xmlns="http://www.w3.org/2000/svg">
<rect width="68" height="68" rx="34" fill="#F5F2FA"/>
<path d="M34 25C33.3078 25 32.6311 24.7947 32.0555 24.4101C31.4799 24.0256 31.0313 23.4789 30.7664 22.8394C30.5015 22.1999 30.4322 21.4961 30.5673 20.8172C30.7023 20.1383 31.0356 19.5146 31.5251 19.0251C32.0146 18.5356 32.6383 18.2023 33.3172 18.0673C33.9961 17.9322 34.6999 18.0015 35.3394 18.2664C35.9789 18.5313 36.5256 18.9799 36.9101 19.5555C37.2947 20.1311 37.5 20.8078 37.5 21.5C37.499 22.428 37.1299 23.3176 36.4738 23.9738C35.8176 24.6299 34.928 24.999 34 25Z" fill="#B497D6"/>
<path d="M44.9999 25.0499L44.9717 25.0574L44.9455 25.0655C44.883 25.083 44.8205 25.1018 44.758 25.1212C43.5949 25.4624 37.9499 27.0537 33.973 27.0537C30.2774 27.0537 25.143 25.6787 23.5005 25.2118C23.337 25.1486 23.1701 25.0948 23.0005 25.0505C21.813 24.738 21.0005 25.9443 21.0005 27.0468C21.0005 28.1387 21.9817 28.6587 22.9724 29.0318V29.0493L28.9236 30.908C29.5317 31.1412 29.6942 31.3793 29.7736 31.5855C30.0317 32.2474 29.8255 33.558 29.7524 34.0155L29.3899 36.828L27.378 47.8399C27.3717 47.8699 27.3661 47.9005 27.3611 47.9318L27.3467 48.0112C27.2017 49.0205 27.943 49.9999 29.3467 49.9999C30.5717 49.9999 31.1124 49.1543 31.3467 48.0037C31.5811 46.853 33.0967 38.1555 33.9717 38.1555C34.8467 38.1555 36.6492 48.0037 36.6492 48.0037C36.8836 49.1543 37.4242 49.9999 38.6492 49.9999C40.0567 49.9999 40.798 49.0162 40.6492 48.0037C40.6365 47.9185 40.6206 47.8339 40.6017 47.7499L38.5624 36.8293L38.2005 34.0168C37.9386 32.3787 38.1492 31.8374 38.2205 31.7105C38.2224 31.7076 38.2241 31.7044 38.2255 31.7012C38.293 31.5762 38.6005 31.2962 39.318 31.0268L44.898 29.0762C44.9323 29.067 44.9661 29.0562 44.9992 29.0437C45.9992 28.6687 46.9992 28.1499 46.9992 27.048C46.9992 25.9462 46.1874 24.738 44.9999 25.0499Z" fill="#B497D6"/>
</svg>
