<svg width="67" height="67" viewBox="0 0 67 67" fill="none" xmlns="http://www.w3.org/2000/svg">
<rect width="67" height="67" rx="33.5" fill="#F5F2FA"/>
<path d="M30.1242 23.4172L30.1055 23.4189C27.2749 23.8271 24.6859 25.2411 22.8125 27.402C21.744 28.6285 20.9394 30.0619 20.4489 31.6129C19.9584 33.1639 19.7926 34.7992 19.9616 36.4171C20.2554 39.3086 21.5972 41.9926 23.7338 43.9628C25.8705 45.933 28.6543 47.0531 31.5601 47.1119C34.4658 47.1706 37.2927 46.164 39.5072 44.2818C41.7218 42.3996 43.171 39.772 43.5814 36.8948V36.8778C43.618 36.6238 43.6464 36.3687 43.6664 36.1128C43.6751 35.9961 43.6596 35.879 43.6209 35.7686C43.5821 35.6582 43.5211 35.557 43.4414 35.4713C43.3618 35.3856 43.2653 35.3173 43.1581 35.2706C43.0508 35.2239 42.9351 35.1998 42.8181 35.1999H34.3504C34.0156 35.1999 33.684 35.1339 33.3746 35.0058C33.0652 34.8776 32.7841 34.6898 32.5473 34.453C32.3105 34.2162 32.1227 33.9351 31.9945 33.6257C31.8664 33.3164 31.8004 32.9848 31.8004 32.6499V24.1822C31.8005 24.0651 31.7764 23.9492 31.7296 23.8418C31.6828 23.7344 31.6143 23.6379 31.5285 23.5582C31.4426 23.4786 31.3412 23.4175 31.2306 23.3789C31.12 23.3403 31.0026 23.325 30.8858 23.3339C30.6297 23.3543 30.3758 23.3821 30.1242 23.4172ZM47.0987 32.0311C47.0817 32.8777 46.3507 33.4999 45.5058 33.4999H35.2004C34.7496 33.4999 34.3172 33.3208 33.9984 33.002C33.6795 32.6832 33.5004 32.2508 33.5004 31.7999V21.4945C33.5004 20.6479 34.1226 19.9186 34.9692 19.9016L35.2004 19.8999C36.7827 19.8998 38.349 20.2153 39.8079 20.8278C41.2667 21.4404 42.5888 22.3377 43.6967 23.4673C44.8046 24.5969 45.6761 25.9361 46.2603 27.4065C46.8444 28.877 47.1295 30.4492 47.0987 32.0311Z" fill="#B497D6"/>
</svg>
