<svg width="68" height="68" viewBox="0 0 68 68" fill="none" xmlns="http://www.w3.org/2000/svg">
<rect width="68" height="68" rx="34" fill="#F5F2FA"/>
<path d="M27.3225 37.3362C26.9688 37.3362 26.6297 37.4767 26.3797 37.7267C26.1296 37.9767 25.9891 38.3159 25.9891 38.6695V41.0455C24.2704 39.1022 23.3219 36.5972 23.3225 34.0028C23.3209 33.6107 23.3441 33.2188 23.3918 32.8295C23.4172 32.6536 23.4073 32.4744 23.3625 32.3025C23.3177 32.1305 23.2389 31.9692 23.1309 31.8281C23.0229 31.687 22.8877 31.5689 22.7334 31.4808C22.5791 31.3927 22.4087 31.3363 22.2322 31.3149C22.0558 31.2936 21.8769 31.3078 21.706 31.3566C21.5351 31.4054 21.3757 31.4879 21.2372 31.5991C21.0987 31.7104 20.9837 31.8483 20.8992 32.0046C20.8147 32.161 20.7623 32.3326 20.7451 32.5095C20.6843 33.0049 20.6545 33.5037 20.6558 34.0028C20.6571 37.1845 21.8007 40.2599 23.8785 42.6695H21.9891C21.6355 42.6695 21.2964 42.81 21.0463 43.06C20.7963 43.3101 20.6558 43.6492 20.6558 44.0028C20.6558 44.3565 20.7963 44.6956 21.0463 44.9456C21.2964 45.1957 21.6355 45.3362 21.9891 45.3362H27.3225C27.531 45.3337 27.736 45.2813 27.9201 45.1834C28.1043 45.0855 28.2624 44.945 28.3811 44.7735L28.4305 44.7162C28.4398 44.7028 28.4398 44.6868 28.4478 44.6735C28.5108 44.566 28.5583 44.4502 28.5891 44.3295C28.6089 44.2614 28.6231 44.1919 28.6318 44.1215C28.6358 44.0815 28.6558 44.0455 28.6558 44.0028V38.6695C28.6558 38.3159 28.5153 37.9767 28.2653 37.7267C28.0152 37.4767 27.6761 37.3362 27.3225 37.3362ZM29.3225 26.0028H26.9451C28.8888 24.2838 31.3943 23.3352 33.9891 23.3362C34.3813 23.3351 34.7732 23.3587 35.1625 23.4068C35.5138 23.4493 35.8676 23.3504 36.146 23.132C36.4244 22.9136 36.6047 22.5935 36.6471 22.2422C36.6896 21.8909 36.5907 21.5371 36.3723 21.2586C36.1539 20.9802 35.8338 20.7999 35.4825 20.7575C34.987 20.6971 34.4883 20.6678 33.9891 20.6695C30.8075 20.6709 27.732 21.8144 25.3225 23.8922V22.0028C25.3225 21.6492 25.182 21.3101 24.9319 21.06C24.6819 20.81 24.3428 20.6695 23.9891 20.6695C23.6355 20.6695 23.2964 20.81 23.0463 21.06C22.7963 21.3101 22.6558 21.6492 22.6558 22.0028V27.3362C22.6645 27.4244 22.6819 27.5115 22.7078 27.5962C22.7409 27.7604 22.8047 27.9169 22.8958 28.0575L22.9118 28.0802C23.0003 28.2076 23.1104 28.3186 23.2371 28.4082C23.2518 28.4188 23.2598 28.4348 23.2745 28.4455C23.2931 28.4588 23.3145 28.4628 23.3345 28.4735C23.4106 28.5187 23.491 28.5562 23.5745 28.5855C23.6868 28.6245 23.8038 28.6482 23.9225 28.6562C23.9465 28.6562 23.9651 28.6695 23.9891 28.6695H29.3225C29.6761 28.6695 30.0152 28.529 30.2653 28.279C30.5153 28.0289 30.6558 27.6898 30.6558 27.3362C30.6558 26.9826 30.5153 26.6434 30.2653 26.3934C30.0152 26.1433 29.6761 26.0028 29.3225 26.0028ZM45.2691 40.4082C45.2358 40.2444 45.1721 40.0884 45.0811 39.9482L45.0665 39.9255C44.9775 39.798 44.867 39.687 44.7398 39.5975C44.7251 39.5868 44.7185 39.5708 44.7025 39.5602C44.6891 39.5508 44.6718 39.5508 44.6571 39.5415C44.4874 39.4485 44.3022 39.3871 44.1105 39.3602C44.0678 39.3562 44.0318 39.3362 43.9891 39.3362H38.6558C38.3022 39.3362 37.963 39.4767 37.713 39.7267C37.4629 39.9767 37.3225 40.3159 37.3225 40.6695C37.3225 41.0231 37.4629 41.3623 37.713 41.6123C37.963 41.8624 38.3022 42.0028 38.6558 42.0028H41.0318C39.0885 43.7216 36.5835 44.6701 33.9891 44.6695C33.5969 44.6702 33.205 44.6461 32.8158 44.5975C32.4645 44.5551 32.1107 44.6539 31.8323 44.8724C31.5538 45.0908 31.3736 45.4109 31.3311 45.7622C31.2887 46.1135 31.3876 46.4673 31.606 46.7457C31.8244 47.0241 32.1445 47.2044 32.4958 47.2468C32.9912 47.3076 33.49 47.3375 33.9891 47.3362C37.1708 47.3348 40.2462 46.1912 42.6558 44.1135V46.0028C42.6558 46.3565 42.7963 46.6956 43.0463 46.9456C43.2964 47.1957 43.6355 47.3362 43.9891 47.3362C44.3428 47.3362 44.6819 47.1957 44.9319 46.9456C45.182 46.6956 45.3225 46.3565 45.3225 46.0028V40.6695C45.3134 40.5813 45.2955 40.4929 45.2691 40.4082ZM45.9891 25.3362C46.3428 25.3362 46.6819 25.1957 46.9319 24.9457C47.182 24.6956 47.3225 24.3565 47.3225 24.0028C47.3225 23.6492 47.182 23.3101 46.9319 23.06C46.6819 22.81 46.3428 22.6695 45.9891 22.6695H40.6558C40.569 22.6784 40.4832 22.6958 40.3998 22.7215L40.3905 22.7228C40.2291 22.7565 40.0754 22.8198 39.9371 22.9095L39.9105 22.9268C39.7835 23.0155 39.673 23.1256 39.5838 23.2522C39.5731 23.2655 39.5571 23.2735 39.5465 23.2882C39.5371 23.3015 39.5371 23.3188 39.5278 23.3335C39.4343 23.5045 39.3729 23.6911 39.3465 23.8842C39.3425 23.9242 39.3225 23.9602 39.3225 24.0028V29.3362C39.3225 29.6898 39.4629 30.0289 39.713 30.279C39.963 30.529 40.3022 30.6695 40.6558 30.6695C41.0094 30.6695 41.3486 30.529 41.5986 30.279C41.8487 30.0289 41.9891 29.6898 41.9891 29.3362V26.9588C43.7071 28.9032 44.6555 31.4082 44.6558 34.0028C44.6569 34.395 44.6333 34.7869 44.5851 35.1762C44.5426 35.5271 44.6412 35.8806 44.8592 36.1589C45.0772 36.4372 45.3969 36.6175 45.7478 36.6602C45.8018 36.6666 45.8561 36.6697 45.9105 36.6695C46.236 36.6689 46.55 36.5493 46.7934 36.3332C47.0368 36.117 47.1927 35.8193 47.2318 35.4962C47.2931 35.0008 47.3233 34.502 47.3225 34.0028C47.3211 30.8212 46.1775 27.7457 44.0998 25.3362H45.9891Z" fill="#B497D6"/>
</svg>
