<svg width="67" height="67" viewBox="0 0 67 67" fill="none" xmlns="http://www.w3.org/2000/svg">
<rect width="67" height="67" rx="33.5" fill="#F5F2FA"/>
<path d="M48.9326 46.9204L44.3331 42.3493V24.7638L42.1609 20.7688C42.0007 20.4642 41.7603 20.2092 41.4656 20.0313C41.171 19.8534 40.8334 19.7593 40.4892 19.7593C40.1451 19.7593 39.8075 19.8534 39.5128 20.0313C39.2182 20.2092 38.9778 20.4642 38.8176 20.7688L36.7776 24.7732V34.8316L19.5037 17.6427C19.3716 17.5095 19.2028 17.4186 19.0189 17.3817C18.835 17.3448 18.6442 17.3635 18.471 17.4355C18.2977 17.5074 18.1498 17.6293 18.0461 17.7856C17.9424 17.942 17.8876 18.1256 17.8887 18.3132V25.9443H19.9381V27.4554H17.8887V33.4999H19.9381V35.011H17.8887V41.2916H19.9381V42.8027H17.8887V47.591C17.8887 47.8415 17.9882 48.0817 18.1653 48.2588C18.3424 48.4359 18.5827 48.5354 18.8331 48.5354H48.262C48.4496 48.5365 48.6333 48.4817 48.7896 48.378C48.9459 48.2743 49.0678 48.1264 49.1398 47.9532C49.2117 47.7799 49.2304 47.5892 49.1935 47.4052C49.1566 47.2213 49.0658 47.0525 48.9326 46.9204ZM25.4442 41.0554V32.4988L34.0104 41.0554H25.4442ZM42.4442 43.0482H38.6665V40.7532H42.4442V43.0482ZM42.4442 39.2704H38.6665V25.236L40.4987 21.6754L42.4442 25.2454V39.2704Z" fill="#B497D6"/>
</svg>
