<svg width="68" height="68" viewBox="0 0 68 68" fill="none" xmlns="http://www.w3.org/2000/svg">
<rect width="68" height="68" rx="34" fill="#F5F2FA"/>
<path d="M30.0002 22.0002V19.3335H38.0002V22.0002H30.0002ZM31.2336 37.2002L29.5002 34.0002H22.0669C22.4002 31.0002 23.7002 28.4726 25.9669 26.4175C28.2336 24.3624 30.9113 23.3344 34.0002 23.3335C35.378 23.3335 36.7002 23.5557 37.9669 24.0002C39.2336 24.4446 40.4224 25.0891 41.5336 25.9335L43.4002 24.0668L45.2669 25.9335L43.4002 27.8002C44.1113 28.7335 44.678 29.7171 45.1002 30.7508C45.5225 31.7846 45.8002 32.8677 45.9336 34.0002H40.1336L36.6669 27.6668L31.2336 37.2002ZM34.0002 47.3335C30.9113 47.3335 28.2336 46.3059 25.9669 44.2508C23.7002 42.1957 22.4002 39.6677 22.0669 36.6668H27.8669L31.3336 43.0002L36.7669 33.4668L38.5002 36.6668H45.9336C45.6002 39.6668 44.306 42.1948 42.0509 44.2508C39.7958 46.3068 37.1122 47.3344 34.0002 47.3335Z" fill="#B497D6"/>
</svg>
