<svg width="68" height="68" viewBox="0 0 68 68" fill="none" xmlns="http://www.w3.org/2000/svg">
<rect width="68" height="68" rx="34" fill="#F5F2FA"/>
<path d="M30.3332 22C30.3332 21.7348 30.4385 21.4804 30.6261 21.2929C30.8136 21.1054 31.068 21 31.3332 21H36.6665C36.9317 21 37.1861 21.1054 37.3736 21.2929C37.5611 21.4804 37.6665 21.7348 37.6665 22V23H43.3332C43.5984 23 43.8527 23.1054 44.0403 23.2929C44.2278 23.4804 44.3332 23.7348 44.3332 24C44.3332 24.2652 44.2278 24.5196 44.0403 24.7071C43.8527 24.8946 43.5984 25 43.3332 25H24.6665C24.4013 25 24.1469 24.8946 23.9594 24.7071C23.7719 24.5196 23.6665 24.2652 23.6665 24C23.6665 23.7348 23.7719 23.4804 23.9594 23.2929C24.1469 23.1054 24.4013 23 24.6665 23H30.3332V22Z" fill="#B497D6"/>
<path fill-rule="evenodd" clip-rule="evenodd" d="M26.32 28.5933C26.338 28.4302 26.4156 28.2795 26.5379 28.17C26.6601 28.0605 26.8185 28 26.9826 28H41.0173C41.1814 28 41.3398 28.0605 41.462 28.17C41.5843 28.2795 41.6619 28.4302 41.68 28.5933L41.9466 30.9947C42.4281 35.324 42.4281 39.6933 41.9466 44.0227L41.92 44.2587C41.8354 45.0252 41.4976 45.7417 40.96 46.2947C40.4224 46.8477 39.7158 47.2057 38.952 47.312C35.6666 47.7717 32.3333 47.7717 29.048 47.312C28.2838 47.206 27.5769 46.8481 27.0391 46.2951C26.5013 45.7421 26.1633 45.0254 26.0786 44.2587L26.052 44.0227C25.5706 39.6938 25.5706 35.3249 26.052 30.996L26.32 28.5933ZM32.3333 33.2C32.3333 32.9348 32.2279 32.6804 32.0404 32.4929C31.8529 32.3054 31.5985 32.2 31.3333 32.2C31.0681 32.2 30.8137 32.3054 30.6262 32.4929C30.4386 32.6804 30.3333 32.9348 30.3333 33.2V42.5333C30.3333 42.7985 30.4386 43.0529 30.6262 43.2404C30.8137 43.428 31.0681 43.5333 31.3333 43.5333C31.5985 43.5333 31.8529 43.428 32.0404 43.2404C32.2279 43.0529 32.3333 42.7985 32.3333 42.5333V33.2ZM37.6666 33.2C37.6666 32.9348 37.5613 32.6804 37.3737 32.4929C37.1862 32.3054 36.9318 32.2 36.6666 32.2C36.4014 32.2 36.147 32.3054 35.9595 32.4929C35.772 32.6804 35.6666 32.9348 35.6666 33.2V42.5333C35.6666 42.7985 35.772 43.0529 35.9595 43.2404C36.147 43.428 36.4014 43.5333 36.6666 43.5333C36.9318 43.5333 37.1862 43.428 37.3737 43.2404C37.5613 43.0529 37.6666 42.7985 37.6666 42.5333V33.2Z" fill="#B497D6"/>
</svg>
