<svg width="68" height="68" viewBox="0 0 68 68" fill="none" xmlns="http://www.w3.org/2000/svg">
<rect width="68" height="68" rx="34" fill="#F5F2FA"/>
<path fill-rule="evenodd" clip-rule="evenodd" d="M44.7502 18.3335C43.6982 18.3335 42.9122 18.3862 42.3282 18.4568C40.8748 18.6322 39.9575 19.7988 39.8835 21.1222C39.8668 21.4202 39.8528 21.7782 39.8435 22.2068L38.9082 22.4402C38.0559 22.6533 37.2992 23.1453 36.7586 23.8378C36.2179 24.5303 35.9242 25.3836 35.9242 26.2622V32.6668H34.0215C34.0115 31.7119 33.9769 30.7573 33.9175 29.8042C33.8055 28.1188 32.6575 26.6762 30.8555 26.4202C29.8208 26.2735 28.3195 26.1515 26.1822 26.1515C24.0448 26.1515 22.5435 26.2735 21.5088 26.4202C19.7068 26.6762 18.5575 28.1188 18.4455 29.8042C18.3842 30.7402 18.3335 32.0868 18.3335 34.0002C18.3335 35.9135 18.3842 37.2602 18.4468 38.1968C18.5582 39.8815 19.7068 41.3242 21.5082 41.5802C22.5435 41.7268 24.0442 41.8488 26.1815 41.8488C28.3188 41.8488 29.8208 41.7268 30.8555 41.5802C32.6568 41.3242 33.8055 39.8815 33.9175 38.1968C33.9642 37.4948 34.0042 36.5622 34.0215 35.3335H35.9242V41.7382C35.9242 42.6167 36.2179 43.4701 36.7586 44.1626C37.2992 44.8551 38.0559 45.347 38.9082 45.5602L39.8435 45.7935C39.8528 46.2222 39.8668 46.5802 39.8835 46.8782C39.9575 48.2015 40.8748 49.3682 42.3282 49.5435C42.9115 49.6142 43.6982 49.6668 44.7502 49.6668C45.8022 49.6668 46.5882 49.6142 47.1722 49.5435C48.6255 49.3682 49.5428 48.2015 49.6168 46.8782C49.6455 46.3648 49.6668 45.6735 49.6668 44.7502C49.6697 44.0405 49.653 43.3309 49.6168 42.6222C49.5428 41.2988 48.6255 40.1322 47.1722 39.9568C46.5882 39.8862 45.8022 39.8335 44.7502 39.8335C43.6982 39.8335 42.9115 39.8862 42.3282 39.9568C40.8748 40.1322 39.9575 41.2988 39.8835 42.6222C39.8759 42.7528 39.8693 42.8955 39.8635 43.0502L39.5548 42.9728C39.2795 42.9039 39.0352 42.745 38.8605 42.5213C38.6859 42.2976 38.5909 42.022 38.5908 41.7382V35.3335H39.8508C39.8579 35.5824 39.8666 35.8057 39.8768 36.0035C39.9482 37.4075 40.9182 38.6388 42.4588 38.8088C43.0268 38.8715 43.7742 38.9168 44.7502 38.9168C45.7262 38.9168 46.4728 38.8715 47.0415 38.8088C48.5815 38.6388 49.5522 37.4075 49.6235 36.0035C49.6488 35.5048 49.6668 34.8508 49.6668 34.0002C49.6668 33.1495 49.6488 32.4955 49.6235 31.9968C49.5522 30.5928 48.5815 29.3615 47.0415 29.1915C46.4728 29.1288 45.7255 29.0835 44.7502 29.0835C43.7742 29.0835 43.0268 29.1288 42.4588 29.1915C40.9188 29.3615 39.9482 30.5928 39.8768 31.9968C39.8666 32.1942 39.8579 32.4175 39.8508 32.6668H38.5908V26.2622C38.5908 25.6782 38.9888 25.1688 39.5548 25.0275L39.8635 24.9502C39.8697 25.1048 39.8764 25.2475 39.8835 25.3782C39.9575 26.7015 40.8748 27.8682 42.3282 28.0435C42.9115 28.1142 43.6982 28.1668 44.7502 28.1668C45.8022 28.1668 46.5882 28.1142 47.1722 28.0435C48.6255 27.8682 49.5428 26.7015 49.6168 25.3782C49.6455 24.8648 49.6668 24.1735 49.6668 23.2502C49.6668 22.3268 49.6455 21.6355 49.6168 21.1222C49.5428 19.7988 48.6255 18.6322 47.1722 18.4568C46.5882 18.3862 45.8022 18.3335 44.7502 18.3335ZM42.6482 21.1042C43.1075 21.0488 43.7848 21.0002 44.7502 21.0002C45.7155 21.0002 46.3928 21.0488 46.8522 21.1042C46.8855 21.1082 46.9002 21.1155 46.9042 21.1175L46.9128 21.1242C46.9162 21.1282 46.9488 21.1668 46.9542 21.2708C46.9802 21.7262 47.0002 22.3662 47.0002 23.2502C47.0002 24.1342 46.9802 24.7748 46.9542 25.2288C46.9488 25.3335 46.9162 25.3722 46.9128 25.3762L46.9042 25.3828C46.8879 25.3908 46.8702 25.3953 46.8522 25.3962C46.3928 25.4515 45.7155 25.5002 44.7502 25.5002C43.7848 25.5002 43.1075 25.4515 42.6482 25.3962C42.6301 25.3953 42.6124 25.3908 42.5962 25.3828L42.5875 25.3762C42.5842 25.3722 42.5515 25.3335 42.5462 25.2295C42.5202 24.7748 42.5002 24.1342 42.5002 23.2502C42.5002 22.3662 42.5202 21.7262 42.5462 21.2715C42.5515 21.1668 42.5842 21.1282 42.5875 21.1242L42.5962 21.1175C42.6124 21.1096 42.6301 21.105 42.6482 21.1042ZM42.6482 42.6042C43.1075 42.5488 43.7848 42.5002 44.7502 42.5002C45.7155 42.5002 46.3928 42.5488 46.8522 42.6042C46.872 42.6052 46.8914 42.6107 46.9088 42.6202L46.9128 42.6242C46.9162 42.6282 46.9488 42.6668 46.9542 42.7708C46.9802 43.2262 47.0002 43.8662 47.0002 44.7502C47.0002 45.6342 46.9802 46.2748 46.9542 46.7288C46.9488 46.8335 46.9162 46.8722 46.9128 46.8762L46.9095 46.8795L46.9042 46.8828C46.8879 46.8908 46.8702 46.8953 46.8522 46.8962C46.3928 46.9522 45.7155 47.0002 44.7502 47.0002C43.7848 47.0002 43.1075 46.9522 42.6482 46.8962C42.6301 46.8953 42.6124 46.8908 42.5962 46.8828H42.5948L42.5922 46.8808L42.5875 46.8762C42.5842 46.8722 42.5515 46.8335 42.5462 46.7295C42.5127 46.0703 42.4973 45.4102 42.5002 44.7502C42.5002 43.8662 42.5202 43.2262 42.5462 42.7715C42.5515 42.6668 42.5842 42.6282 42.5875 42.6242L42.5962 42.6175C42.6124 42.6096 42.6301 42.605 42.6482 42.6042ZM44.7502 31.7502C43.8555 31.7502 43.2068 31.7915 42.7515 31.8422C42.7177 31.8446 42.6847 31.8534 42.6542 31.8682C42.6385 31.8758 42.6244 31.8864 42.6128 31.8995C42.5922 31.9235 42.5475 31.9908 42.5395 32.1315C42.5175 32.5782 42.5002 33.1862 42.5002 34.0002C42.5002 34.8142 42.5175 35.4222 42.5402 35.8688C42.5468 36.0088 42.5922 36.0768 42.6135 36.1008C42.6246 36.1142 42.6379 36.1246 42.6535 36.1322C42.6846 36.146 42.7177 36.155 42.7515 36.1588C43.2068 36.2088 43.8548 36.2502 44.7502 36.2502C45.6448 36.2502 46.2935 36.2088 46.7488 36.1582C46.7826 36.1558 46.8157 36.1469 46.8462 36.1322C46.8619 36.1245 46.8759 36.1139 46.8875 36.1008C46.9082 36.0768 46.9528 36.0095 46.9608 35.8688C46.9828 35.4222 47.0002 34.8142 47.0002 34.0002C47.0002 33.1862 46.9828 32.5782 46.9602 32.1322C46.9535 31.9908 46.9082 31.9235 46.8868 31.8995C46.8756 31.8866 46.862 31.8759 46.8468 31.8682C46.8162 31.8531 46.7829 31.844 46.7488 31.8415C46.2935 31.7915 45.6455 31.7502 44.7502 31.7502Z" fill="#B497D6"/>
</svg>
