<svg width="68" height="68" viewBox="0 0 68 68" fill="none" xmlns="http://www.w3.org/2000/svg">
<rect width="68" height="68" rx="34" fill="#F5F2FA"/>
<path d="M23 20C21.3438 20 20 21.3438 20 23C20 24.6562 21.3438 26 23 26H32.5V28.5L29.5 31.5H25C22.5125 31.5 20.5 33.5125 20.5 36V40H20C18.8937 40 18 40.8937 18 42V46C18 47.1063 18.8937 48 20 48H24C25.1062 48 26 47.1063 26 46V42C26 40.8937 25.1062 40 24 40H23.5V36C23.5 35.1687 24.1687 34.5 25 34.5H29.5L32.5 37.5V40H32C30.8938 40 30 40.8937 30 42V46C30 47.1063 30.8938 48 32 48H36C37.1063 48 38 47.1063 38 46V42C38 40.8937 37.1063 40 36 40H35.5V37.5L38.5 34.5H43C43.8312 34.5 44.5 35.1687 44.5 36V40H44C42.8937 40 42 40.8937 42 42V46C42 47.1063 42.8937 48 44 48H48C49.1063 48 50 47.1063 50 46V42C50 40.8937 49.1063 40 48 40H47.5V36C47.5 33.5125 45.4875 31.5 43 31.5H38.5L35.5 28.5V26H45C46.6562 26 48 24.6562 48 23C48 21.3438 46.6562 20 45 20H23Z" fill="#B497D6"/>
</svg>
