<svg width="24" height="24" viewBox="0 0 24 24" fill="none" xmlns="http://www.w3.org/2000/svg">
<path fill-rule="evenodd" clip-rule="evenodd" d="M14.9998 3C14.9998 3.79565 14.6837 4.55871 14.1211 5.12132C13.5585 5.68393 12.7954 6 11.9998 6C11.2041 6 10.4411 5.68393 9.87848 5.12132C9.31587 4.55871 8.9998 3.79565 8.9998 3C8.9998 2.20435 9.31587 1.44129 9.87848 0.87868C10.4411 0.31607 11.2041 0 11.9998 0C12.7954 0 13.5585 0.31607 14.1211 0.87868C14.6837 1.44129 14.9998 2.20435 14.9998 3ZM1.3098 8.5C1.15594 8.49981 1.00412 8.53513 0.866144 8.60321C0.728168 8.67128 0.60776 8.77027 0.51429 8.89248C0.420819 9.01469 0.356808 9.15681 0.327238 9.3078C0.297667 9.45879 0.303334 9.61456 0.343798 9.763L1.4998 14C1.4998 14.2652 1.60515 14.5196 1.79269 14.7071C1.98023 14.8946 2.23458 15 2.4998 15H10.4998C10.765 15 11.0194 14.8946 11.2069 14.7071C11.3944 14.5196 11.4998 14.2652 11.4998 14C11.4998 13.7348 11.3944 13.4804 11.2069 13.2929C11.0194 13.1054 10.765 13 10.4998 13H8.2268L7.2008 9.237C7.14309 9.0253 7.01735 8.83845 6.84296 8.70527C6.66858 8.57208 6.45523 8.49996 6.2358 8.5H1.3098ZM3.9038 16.5H10.4998C11.1628 16.5 11.7987 16.2366 12.2676 15.7678C12.7364 15.2989 12.9998 14.663 12.9998 14C12.9998 13.337 12.7364 12.7011 12.2676 12.2322C11.7987 11.7634 11.1628 11.5 10.4998 11.5H9.3728L8.6478 8.842L8.6428 8.824C9.0613 8.17912 9.65669 7.66843 10.3578 7.35299C11.0589 7.03756 11.836 6.93073 12.5962 7.04528C13.3563 7.15983 14.0675 7.49091 14.6445 7.99894C15.2214 8.50696 15.6399 9.17043 15.8498 9.91C15.4549 10.0441 15.1121 10.2989 14.8699 10.6384C14.6276 10.9779 14.4982 11.3849 14.4998 11.802V14.514C14.4998 15.487 14.8278 16.434 15.3878 17.209C15.1303 17.3981 14.8192 17.5 14.4998 17.5H10.3228L7.2648 22.305C7.16191 22.4771 7.02557 22.6268 6.86383 22.7453C6.70208 22.8638 6.51823 22.9487 6.32312 22.9949C6.12802 23.0411 5.92563 23.0478 5.72792 23.0144C5.53021 22.9811 5.34118 22.9084 5.17203 22.8008C5.00287 22.6931 4.85701 22.5527 4.74307 22.3877C4.62913 22.2227 4.54942 22.0366 4.50866 21.8402C4.4679 21.6439 4.46691 21.4414 4.50575 21.2447C4.54459 21.048 4.62248 20.8611 4.7348 20.695L6.1508 18.548C6.24203 18.4098 6.27464 18.2411 6.24145 18.0788C6.20825 17.9166 6.11198 17.7742 5.9738 17.683C5.83562 17.5918 5.66686 17.5592 5.50464 17.5924C5.34242 17.6255 5.20003 17.7218 5.1088 17.86L3.6798 20.024C3.43534 20.4082 3.29009 20.847 3.25711 21.3012C3.22412 21.7553 3.30442 22.2105 3.4908 22.626C3.21967 22.8649 2.87142 22.9979 2.51007 23.0005C2.14872 23.0032 1.79856 22.8753 1.52398 22.6404C1.2494 22.4054 1.06885 22.0793 1.01554 21.7219C0.962226 21.3645 1.03973 20.9998 1.2338 20.695L3.9038 16.5ZM21.9698 14.514C21.9698 15.334 21.7308 16.036 21.2538 16.504L23.4028 19.549C23.7608 20.135 23.9998 20.838 23.9998 21.541V21.658C23.9998 22.946 22.9248 24 21.6118 24H14.9998C14.7346 24 14.4802 23.8946 14.2927 23.7071C14.1052 23.5196 13.9998 23.2652 13.9998 23C13.9998 22.7348 14.1052 22.4804 14.2927 22.2929C14.4802 22.1054 14.7346 22 14.9998 22H16.9548V16.739C16.3578 16.153 15.9998 15.333 15.9998 14.513V11.803C15.9996 11.718 16.0211 11.6344 16.0622 11.5601C16.1034 11.4857 16.1627 11.423 16.2348 11.378C16.3069 11.333 16.3892 11.307 16.4741 11.3027C16.5589 11.2983 16.6435 11.3156 16.7198 11.353L18.3878 12.171H19.5818L21.2498 11.353C21.3261 11.3156 21.4107 11.2983 21.4955 11.3027C21.5804 11.307 21.6627 11.333 21.7348 11.378C21.8069 11.423 21.8662 11.4857 21.9074 11.5601C21.9485 11.6344 21.97 11.718 21.9698 11.803V14.514Z" fill="#B497D6"/>
</svg>
