<?xml version="1.0" encoding="UTF-8" standalone="no"?>
<!-- Created with Inkscape (http://www.inkscape.org/) -->

<svg
   width="99mm"
   height="98mm"
   viewBox="0 0 99 98"
   version="1.1"
   id="svg1"
   xml:space="preserve"
   xmlns="http://www.w3.org/2000/svg"
   xmlns:svg="http://www.w3.org/2000/svg"><defs
     id="defs1" /><g
     id="layer1"
     transform="translate(-53.190231,-86.020566)"><path
       style="fill:#2589b3;fill-opacity:1"
       d="m 138.69799,179.77219 c -6.1091,-1.14692 -11.92614,-4.48402 -17.00132,-9.75325 -5.58722,-5.80085 -9.22521,-11.54488 -19.50004,-30.78866 -1.57414,-2.94822 -3.726236,-6.68975 -4.782436,-8.31451 l -1.92037,-2.95411 -0.15373,2.2291 c -0.26836,3.89124 -0.37154,24.38505 -0.13149,26.117 0.42318,3.05323 1.93024,5.15287 4.72793,6.58698 l 1.455206,0.74595 -3.225746,0.0742 c -1.77416,0.0408 -4.75072,0.0408 -6.614578,0 l -3.38884,-0.0742 0.92604,-0.44108 c 1.88088,-0.89587 3.05319,-1.98239 3.976288,-3.68531 l 0.9185,-1.69444 0.068,-11.50938 0.068,-11.50937 -0.85909,1.71979 c -6.395778,12.80363 -28.553358,12.88865 -34.476758,0.13229 -4.92001,-10.59548 1.43853,-20.8486 13.5083,-21.7821 l 2.30551,-0.17832 -2.13633,-1.78673 c -13.28348,-11.10968 -5.77723,-27.226215 10.49868,-22.541475 2.77301,0.79816 4.70952,0.79216 5.60404,-0.0174 0.63431,-0.57405 -0.0444,9.41042 -0.78266,11.513275 -0.0255,0.0728 -0.33355,-0.70115 -0.68446,-1.71979 -2.11116,-6.128435 -5.56123,-9.921885 -9.02374,-9.921885 -5.58785,0 -8.64179,4.78393 -6.18829,9.69381 1.38391,2.769465 3.67451,4.796435 13.26394,11.737445 1.50785,1.09141 3.84193,3.07841 5.18685,4.41556 1.34492,1.33715 3.192168,2.86626 4.104998,3.39802 5.51819,3.21458 9.968206,7.74708 14.928476,15.20517 3.19231,4.79985 4.02484,6.37888 10.60196,20.10834 l 0.57037,1.19062 0.0815,-10.31875 c 0.14479,-18.32954 -0.11326,-19.49213 -4.81118,-21.67574 l -1.45521,-0.67638 6.48229,0.004 6.48229,0.005 -1.53107,0.83063 c -4.04017,2.19187 -4.15747,2.75553 -4.15747,19.97811 v 14.18977 l 1.49387,2.80047 c 7.02399,13.16747 12.89271,18.07239 21.65717,18.1005 2.95371,0.009 3.55489,0.13979 3.56783,0.7734 0.007,0.33019 -7.66915,0.16597 -9.65324,-0.20652 z M 80.685236,144.19736 c 4.31226,-1.6147 6.81877,-5.08768 7.30548,-10.12235 0.62632,-6.47885 -1.71105,-10.36742 -10.14689,-16.88095 l -2.11667,-1.63434 -2.3698,0.17548 c -10.96017,0.81154 -15.03746,17.36163 -6.36839,25.84992 3.24785,3.18011 9.16549,4.30876 13.69627,2.61224 z"
       id="path2" /></g></svg>
